<?xml version="1.0" encoding="utf-8"?>
<!-- Generator: Adobe Illustrator 16.0.0, SVG Export Plug-In . SVG Version: 6.00 Build 0)  -->
<!DOCTYPE svg PUBLIC "-//W3C//DTD SVG 1.1//EN" "http://www.w3.org/Graphics/SVG/1.1/DTD/svg11.dtd">
<svg version="1.1" id="Layer_1" xmlns="http://www.w3.org/2000/svg" xmlns:xlink="http://www.w3.org/1999/xlink" x="0px" y="0px"
	 width="160px" height="100px" viewBox="0 0 160 100" enable-background="new 0 0 160 100" xml:space="preserve">
<path fill="#AE2024" d="M52.535,2.005v48.946h20.844c-3.25-3.051-6.561-4.781-9.672-5.485V35.56l0.008,0.003V15.504
	c4.75,1.074,9.965,4.52,14.717,11.447V11.29C71.259,3.352,61.943,1.208,52.535,2.005z"/>
<path fill="#EE2B2F" d="M78.431,11.29v15.661c4.752-6.927,9.968-10.373,14.718-11.447v24.268h-0.008v5.694
	c-3.109,0.704-6.424,2.434-9.673,5.485h20.858V2.005C94.919,1.208,85.604,3.352,78.431,11.29z"/>
<path fill="#EE2B2F" d="M0.271,64.475h4.797l3.909,6.342l3.91-6.342h4.798v16.384h-4.517v-9.409l-4.191,6.416H8.884l-4.167-6.369
	v9.362H0.271V64.475z"/>
<path fill="#EE2B2F" d="M20.585,64.475h13.177v3.861h-8.684v2.48h7.864v3.583h-7.864v2.598h8.801v3.861H20.585V64.475z"/>
<path fill="#EE2B2F" d="M36.195,64.475h4.238l6.74,8.66v-8.66h4.495v16.384h-3.979l-6.999-8.988v8.988h-4.494V64.475z"/>
<path fill="#EE2B2F" d="M53.326,78.427l2.527-3.021c1.616,1.288,3.418,1.966,5.314,1.966c1.217,0,1.873-0.421,1.873-1.125v-0.045
	c0-0.681-0.538-1.053-2.761-1.568c-3.489-0.797-6.18-1.78-6.18-5.15v-0.045c0-3.044,2.41-5.244,6.345-5.244
	c2.784,0,4.961,0.749,6.74,2.176l-2.271,3.207c-1.498-1.053-3.137-1.615-4.587-1.615c-1.1,0-1.639,0.468-1.639,1.056v0.044
	c0,0.75,0.561,1.079,2.833,1.593c3.769,0.819,6.109,2.037,6.109,5.103v0.047c0,3.346-2.645,5.336-6.624,5.336
	C58.101,81.139,55.338,80.229,53.326,78.427z"/>
<path fill="#EE2B2F" d="M69.826,64.475h4.798l3.909,6.342l3.911-6.342h4.797v16.384h-4.518v-9.409l-4.19,6.416h-0.094l-4.164-6.369
	v9.362h-4.449V64.475z"/>
<path fill="#EE2B2F" d="M90.141,64.475h13.179v3.861h-8.686v2.48h7.863v3.583h-7.863v2.598h8.801v3.861H90.141V64.475z"/>
<path fill="#EE2B2F" d="M105.749,64.475h4.239l6.739,8.66v-8.66h4.495v16.384h-3.98l-6.998-8.988v8.988h-4.495V64.475z"/>
<path fill="#EE2B2F" d="M128.125,68.453h-4.916v-3.979h14.373v3.979h-4.917v12.405h-4.54V68.453z"/>
<path fill="#EE2B2F" d="M139.662,64.475h4.563v16.384h-4.563V64.475z"/>
<path fill="#EE2B2F" d="M145.98,78.427l2.527-3.021c1.617,1.288,3.417,1.966,5.316,1.966c1.215,0,1.87-0.421,1.87-1.125v-0.045
	c0-0.681-0.536-1.053-2.761-1.568c-3.488-0.797-6.183-1.78-6.183-5.15v-0.045c0-3.044,2.413-5.244,6.346-5.244
	c2.787,0,4.962,0.749,6.743,2.176l-2.272,3.207c-1.498-1.053-3.138-1.615-4.587-1.615c-1.103,0-1.641,0.468-1.641,1.056v0.044
	c0,0.75,0.563,1.079,2.835,1.593c3.768,0.819,6.108,2.037,6.108,5.103v0.047c0,3.346-2.646,5.336-6.624,5.336
	C150.757,81.139,147.994,80.229,145.98,78.427z"/>
<path fill="#EE2B2F" d="M30.348,90.201h2.819c0.784,0,1.394,0.222,1.797,0.624c0.344,0.345,0.529,0.827,0.529,1.41v0.02
	c0,0.995-0.538,1.619-1.321,1.912l1.506,2.2h-1.586l-1.321-1.973h-0.017h-1.049v1.973h-1.356V90.201z M33.079,93.196
	c0.661,0,1.041-0.354,1.041-0.873v-0.017c0-0.583-0.406-0.883-1.067-0.883h-1.349v1.772H33.079z"/>
<path fill="#EE2B2F" d="M36.72,90.201h4.651v1.207h-3.304v1.251h2.908v1.207h-2.908v1.295h3.347v1.206H36.72V90.201z"/>
<path fill="#EE2B2F" d="M44.738,90.156h1.252l2.642,6.211h-1.418l-0.563-1.383h-2.608l-0.564,1.383h-1.383L44.738,90.156z
	 M46.165,93.786l-0.82-1.999l-0.819,1.999H46.165z"/>
<path fill="#EE2B2F" d="M49.584,90.201h2.405c1.938,0,3.278,1.33,3.278,3.065v0.019c0,1.732-1.339,3.082-3.278,3.082h-2.405V90.201z
	 M51.99,95.145c1.11,0,1.86-0.75,1.86-1.844v-0.016c0-1.094-0.75-1.861-1.86-1.861h-1.048v3.721H51.99z"/>
<path fill="#EE2B2F" d="M57.639,93.934l-2.37-3.732h1.585l1.471,2.474l1.499-2.474h1.542l-2.371,3.708v2.458h-1.357V93.934z"/>
<path fill="#EE2B2F" d="M64.856,90.201h4.696v1.231h-3.339v1.313h2.942v1.236h-2.942v2.385h-1.357V90.201z"/>
<path fill="#EE2B2F" d="M70.364,93.301v-0.016c0-1.754,1.383-3.19,3.286-3.19c1.904,0,3.27,1.418,3.27,3.172v0.019
	c0,1.751-1.384,3.188-3.287,3.188S70.364,95.056,70.364,93.301z M75.501,93.301v-0.016c0-1.059-0.775-1.939-1.868-1.939
	s-1.85,0.862-1.85,1.921v0.019c0,1.057,0.775,1.938,1.867,1.938C74.743,95.223,75.501,94.358,75.501,93.301z"/>
<path fill="#EE2B2F" d="M78.127,90.201h2.819c0.787,0,1.392,0.222,1.798,0.624c0.343,0.345,0.528,0.827,0.528,1.41v0.02
	c0,0.995-0.536,1.619-1.32,1.912l1.506,2.2h-1.586l-1.321-1.973h-0.019h-1.048v1.973h-1.358V90.201z M80.86,93.196
	c0.662,0,1.038-0.354,1.038-0.873v-0.017c0-0.583-0.405-0.883-1.065-0.883h-1.348v1.772H80.86z"/>
<path fill="#EE2B2F" d="M87.144,90.201h4.695v1.231H88.5v1.313h2.943v1.236H88.5v2.385h-1.356V90.201z"/>
<path fill="#EE2B2F" d="M92.986,90.201h1.356v6.166h-1.356V90.201z"/>
<path fill="#EE2B2F" d="M97.32,91.451h-1.876v-1.25h5.109v1.25h-1.876v4.916H97.32V91.451z"/>
<path fill="#EE2B2F" d="M101.596,90.201h1.251l2.89,3.797v-3.797h1.338v6.166h-1.152l-2.987-3.921v3.921h-1.339V90.201z"/>
<path fill="#EE2B2F" d="M108.558,90.201h4.651v1.207h-3.305v1.251h2.908v1.207h-2.908v1.295h3.35v1.206h-4.696V90.201z"/>
<path fill="#EE2B2F" d="M114.04,95.469l0.799-0.961c0.557,0.459,1.138,0.75,1.843,0.75c0.554,0,0.89-0.222,0.89-0.581v-0.019
	c0-0.344-0.211-0.52-1.242-0.784c-1.243-0.316-2.044-0.66-2.044-1.886V91.97c0-1.117,0.898-1.859,2.16-1.859
	c0.898,0,1.664,0.282,2.289,0.787l-0.704,1.021c-0.547-0.379-1.083-0.606-1.604-0.606c-0.521,0-0.793,0.236-0.793,0.536v0.02
	c0,0.404,0.266,0.536,1.332,0.808c1.248,0.328,1.955,0.777,1.955,1.853v0.019c0,1.221-0.935,1.908-2.267,1.908
	C115.72,96.454,114.778,96.13,114.04,95.469z"/>
<path fill="#EE2B2F" d="M119.59,95.469l0.804-0.961c0.555,0.459,1.134,0.75,1.84,0.75c0.554,0,0.891-0.222,0.891-0.581v-0.019
	c0-0.344-0.212-0.52-1.242-0.784c-1.243-0.316-2.045-0.66-2.045-1.886V91.97c0-1.117,0.896-1.859,2.157-1.859
	c0.901,0,1.665,0.282,2.294,0.787l-0.708,1.021c-0.543-0.379-1.083-0.606-1.601-0.606c-0.521,0-0.793,0.236-0.793,0.536v0.02
	c0,0.404,0.263,0.536,1.329,0.808c1.252,0.328,1.957,0.777,1.957,1.853v0.019c0,1.221-0.935,1.908-2.264,1.908
	C121.273,96.454,120.33,96.13,119.59,95.469z"/>
<path fill="#EE2B2F" d="M125.557,90.377v-0.176h1.568v0.176l-0.414,3.895h-0.74L125.557,90.377z M125.625,94.956h1.429v1.411h-1.429
	V94.956z"/>
</svg>
